<?xml version="1.0" encoding="UTF-8"?><svg id="Layer_2" xmlns="http://www.w3.org/2000/svg" viewBox="0 0 598.7045 500.9644"><g id="Components"><g id="_85e7917b-6bea-4e20-b8f7-f5836792d698_1"><circle cx="361.6437" cy="303.2119" r="5.1805" style="fill:#b2b2b2; stroke-width:0px;"/><circle cx="236.5205" cy="198.221" r="5.1805" style="fill:#b2b2b2; stroke-width:0px;"/><circle cx="336.7924" cy="323.1572" r="5.1805" style="fill:#b2b2b2; stroke-width:0px;"/><circle cx="261.3718" cy="178.2757" r="5.1805" style="fill:#b2b2b2; stroke-width:0px;"/><circle cx="306.2" cy="332.0741" r="5.1805" style="fill:#b2b2b2; stroke-width:0px;"/><circle cx="291.9642" cy="169.3588" r="5.1805" style="fill:#b2b2b2; stroke-width:0px;"/><circle cx="274.5239" cy="328.605" r="5.1805" style="fill:#b2b2b2; stroke-width:0px;"/><circle cx="323.6403" cy="172.8279" r="5.1805" style="fill:#b2b2b2; stroke-width:0px;"/><circle cx="246.5866" cy="313.2781" r="5.1805" style="fill:#b2b2b2; stroke-width:0px;"/><circle cx="351.5775" cy="188.1548" r="5.1805" style="fill:#b2b2b2; stroke-width:0px;"/><circle cx="236.5205" cy="198.221" r="5.1805" style="fill:#b2b2b2; stroke-width:0px;"/><circle cx="361.6437" cy="303.2119" r="5.1805" style="fill:#b2b2b2; stroke-width:0px;"/><circle cx="360.1233" cy="323.4625" r="6.0238" style="fill:#b2b2b2; stroke-width:0px;"/><circle cx="238.0409" cy="177.9704" r="6.0238" style="fill:#b2b2b2; stroke-width:0px;"/><circle cx="327.6381" cy="341.2845" r="6.0238" style="fill:#b2b2b2; stroke-width:0px;"/><circle cx="270.5261" cy="160.1484" r="6.0238" style="fill:#b2b2b2; stroke-width:0px;"/><circle cx="290.8055" cy="345.3183" r="6.0238" style="fill:#b2b2b2; stroke-width:0px;"/><circle cx="307.3587" cy="156.1145" r="6.0238" style="fill:#b2b2b2; stroke-width:0px;"/><circle cx="255.2329" cy="334.9499" r="6.0238" style="fill:#b2b2b2; stroke-width:0px;"/><circle cx="342.9312" cy="166.483" r="6.0238" style="fill:#b2b2b2; stroke-width:0px;"/><circle cx="226.336" cy="311.7576" r="6.0238" style="fill:#b2b2b2; stroke-width:0px;"/><circle cx="371.8282" cy="189.6752" r="6.0238" style="fill:#b2b2b2; stroke-width:0px;"/><circle cx="238.0409" cy="177.9704" r="6.0238" style="fill:#b2b2b2; stroke-width:0px;"/><circle cx="360.1233" cy="323.4625" r="6.0238" style="fill:#b2b2b2; stroke-width:0px;"/><circle cx="354.2933" cy="346.345" r="7.0044" style="fill:#b2b2b2; stroke-width:0px;"/><circle cx="243.8709" cy="155.0878" r="7.0044" style="fill:#b2b2b2; stroke-width:0px;"/><circle cx="313.4951" cy="360.1942" r="7.0044" style="fill:#b2b2b2; stroke-width:0px;"/><circle cx="284.6691" cy="141.2387" r="7.0044" style="fill:#b2b2b2; stroke-width:0px;"/><circle cx="270.5027" cy="357.3763" r="7.0044" style="fill:#b2b2b2; stroke-width:0px;"/><circle cx="327.6615" cy="144.0566" r="7.0044" style="fill:#b2b2b2; stroke-width:0px;"/><circle cx="231.8612" cy="338.3204" r="7.0044" style="fill:#b2b2b2; stroke-width:0px;"/><circle cx="366.303" cy="163.1125" r="7.0044" style="fill:#b2b2b2; stroke-width:0px;"/><circle cx="203.4535" cy="305.9276" r="7.0044" style="fill:#b2b2b2; stroke-width:0px;"/><circle cx="394.7107" cy="195.5052" r="7.0044" style="fill:#b2b2b2; stroke-width:0px;"/><circle cx="211.4781" cy="183.4955" r="7.0044" style="fill:#b2b2b2; stroke-width:0px;"/><circle cx="386.6861" cy="317.9373" r="7.0044" style="fill:#b2b2b2; stroke-width:0px;"/><circle cx="243.8709" cy="155.0878" r="7.0044" style="fill:#b2b2b2; stroke-width:0px;"/><circle cx="354.2933" cy="346.345" r="7.0044" style="fill:#b2b2b2; stroke-width:0px;"/><circle cx="342.9968" cy="371.3712" r="8.1447" style="fill:#b2b2b2; stroke-width:0px;"/><circle cx="255.1673" cy="130.0616" r="8.1447" style="fill:#b2b2b2; stroke-width:0px;"/><circle cx="293.4814" cy="378.9924" r="8.1447" style="fill:#b2b2b2; stroke-width:0px;"/><circle cx="304.6827" cy="122.4405" r="8.1447" style="fill:#b2b2b2; stroke-width:0px;"/><circle cx="244.8187" cy="367.0847" r="8.1447" style="fill:#b2b2b2; stroke-width:0px;"/><circle cx="353.3455" cy="134.3482" r="8.1447" style="fill:#b2b2b2; stroke-width:0px;"/><circle cx="204.4171" cy="337.461" r="8.1447" style="fill:#b2b2b2; stroke-width:0px;"/><circle cx="393.7471" cy="163.9719" r="8.1447" style="fill:#b2b2b2; stroke-width:0px;"/><circle cx="182.7139" cy="196.453" r="8.1447" style="fill:#b2b2b2; stroke-width:0px;"/><circle cx="415.4503" cy="304.9798" r="8.1447" style="fill:#b2b2b2; stroke-width:0px;"/><circle cx="212.3376" cy="156.0514" r="8.1447" style="fill:#b2b2b2; stroke-width:0px;"/><circle cx="385.8266" cy="345.3815" r="8.1447" style="fill:#b2b2b2; stroke-width:0px;"/><circle cx="255.1673" cy="130.0616" r="8.1447" style="fill:#b2b2b2; stroke-width:0px;"/><circle cx="342.9968" cy="371.3712" r="8.1447" style="fill:#b2b2b2; stroke-width:0px;"/><circle cx="325.0078" cy="397.7484" r="9.4705" style="fill:#b2b2b2; stroke-width:0px;"/><circle cx="273.1564" cy="103.6845" r="9.4705" style="fill:#b2b2b2; stroke-width:0px;"/><circle cx="266.7676" cy="396.4776" r="9.4705" style="fill:#b2b2b2; stroke-width:0px;"/><circle cx="331.3966" cy="104.9553" r="9.4705" style="fill:#b2b2b2; stroke-width:0px;"/><circle cx="213.447" cy="373.016" r="9.4705" style="fill:#b2b2b2; stroke-width:0px;"/><circle cx="384.7171" cy="128.4169" r="9.4705" style="fill:#b2b2b2; stroke-width:0px;"/><circle cx="173.1636" cy="330.9354" r="9.4705" style="fill:#b2b2b2; stroke-width:0px;"/><circle cx="425.0006" cy="170.4975" r="9.4705" style="fill:#b2b2b2; stroke-width:0px;"/><circle cx="176.7826" cy="165.0814" r="9.4705" style="fill:#b2b2b2; stroke-width:0px;"/><circle cx="421.3816" cy="336.3515" r="9.4705" style="fill:#b2b2b2; stroke-width:0px;"/><circle cx="218.8632" cy="124.798" r="9.4705" style="fill:#b2b2b2; stroke-width:0px;"/><circle cx="379.301" cy="376.6349" r="9.4705" style="fill:#b2b2b2; stroke-width:0px;"/><circle cx="273.1564" cy="103.6845" r="9.4705" style="fill:#b2b2b2; stroke-width:0px;"/><circle cx="325.0078" cy="397.7484" r="9.4705" style="fill:#b2b2b2; stroke-width:0px;"/><circle cx="299.0821" cy="424.3213" r="11.0122" style="fill:#b2b2b2; stroke-width:0px;"/><path d="M288.0698,77.1116c0-6.0819,4.9304-11.0122,11.0122-11.0122,6.0819,0,11.0122,4.9304,11.0122,11.0122s-4.9304,11.0122-11.0122,11.0122c-6.0819,0-11.0122-4.9304-11.0122-11.0122Z" style="fill:#b2b2b2; stroke-width:0px;"/><circle cx="232.6464" cy="411.1064" r="11.0122" style="fill:#b2b2b2; stroke-width:0px;"/><circle cx="365.5178" cy="90.3265" r="11.0122" style="fill:#b2b2b2; stroke-width:0px;"/><circle cx="176.3249" cy="373.4736" r="11.0122" style="fill:#b2b2b2; stroke-width:0px;"/><circle cx="421.8393" cy="127.9593" r="11.0122" style="fill:#b2b2b2; stroke-width:0px;"/><circle cx="138.6921" cy="317.1521" r="11.0122" style="fill:#b2b2b2; stroke-width:0px;"/><circle cx="459.4721" cy="184.2807" r="11.0122" style="fill:#b2b2b2; stroke-width:0px;"/><circle cx="138.6921" cy="184.2807" r="11.0122" style="fill:#b2b2b2; stroke-width:0px;"/><circle cx="459.4721" cy="317.1521" r="11.0122" style="fill:#b2b2b2; stroke-width:0px;"/><circle cx="176.3249" cy="127.9593" r="11.0122" style="fill:#b2b2b2; stroke-width:0px;"/><circle cx="421.8393" cy="373.4736" r="11.0122" style="fill:#b2b2b2; stroke-width:0px;"/><circle cx="232.6464" cy="90.3265" r="11.0122" style="fill:#b2b2b2; stroke-width:0px;"/><circle cx="365.5178" cy="411.1064" r="11.0122" style="fill:#b2b2b2; stroke-width:0px;"/><circle cx="299.0821" cy="77.1116" r="11.0122" style="fill:#b2b2b2; stroke-width:0px;"/><circle cx="299.0821" cy="424.3213" r="11.0122" style="fill:#b2b2b2; stroke-width:0px;"/><path d="M114.1077,280.7828c-4.0488,1.8477-8.7148,2.7734-13.998,2.7734-4.8135,0-9.2598-.793-13.3379-2.377-4.0801-1.5859-7.6152-3.8301-10.6094-6.7363-2.9932-2.9043-5.3418-6.3828-7.043-10.4316-1.7031-4.0508-2.5537-8.5098-2.5537-13.3828,0-4.9883.8652-9.5098,2.5967-13.5586,1.7314-4.0508,4.123-7.498,7.1758-10.3457,3.0518-2.8457,6.6328-5.0313,10.7412-6.5586,4.1084-1.5254,8.54-2.2891,13.2939-2.2891,4.4023,0,8.7305.7793,12.9863,2.334,4.2559,1.5547,7.7041,3.8281,10.3457,6.8223l-10.2129,10.2129c-1.4092-1.9375-3.2578-3.375-5.5469-4.3145-2.2891-.9375-4.6377-1.4082-7.043-1.4082-2.6416,0-5.0625.4844-7.2637,1.4531-2.2012.9688-4.0938,2.3047-5.6787,4.0059-1.585,1.7031-2.8174,3.7129-3.6982,6.0313-.8809,2.3184-1.3203,4.8574-1.3203,7.6152,0,2.8164.4395,5.4004,1.3203,7.748.8809,2.3477,2.0977,4.3574,3.6543,6.0293,1.5547,1.6738,3.418,2.9805,5.5898,3.918,2.1719.9395,4.5488,1.4102,7.1318,1.4102,2.9932,0,5.6045-.5859,7.8359-1.7617,2.2295-1.1738,4.0195-2.6992,5.3701-4.5781l10.4766,9.8613c-2.7588,3.168-6.1621,5.6777-10.2129,7.5273Z" style="fill:#304148; stroke-width:0px;"/><path d="M130.7484,281.8824v-62.332h41.9082v12.6777h-27.3809v11.7969h25.8838v12.0625h-25.8838v12.9414h28.9648v12.8535h-43.4922Z" style="fill:#304148; stroke-width:0px;"/><path d="M217.557,281.8824l-13.5332-24.7383h-5.1318v24.7383h-14.7021v-62.332h23.7705c2.9932,0,5.9131.3066,8.7607.9238,2.8457.6152,5.3984,1.6582,7.6592,3.125,2.2588,1.4687,4.0635,3.4043,5.415,5.8105,1.3496,2.4082,2.0244,5.4004,2.0244,8.9805,0,4.2266-1.1445,7.7773-3.4336,10.6523-2.2891,2.877-5.458,4.9316-9.5088,6.1641l16.2881,26.6758h-17.6084ZM216.9407,238.6539c0-1.4668-.3115-2.6543-.9307-3.5645-.6191-.9102-1.415-1.6152-2.3877-2.1133-.9736-.498-2.0654-.8359-3.2744-1.0137-1.209-.1758-2.374-.2637-3.4941-.2637h-8.0498v14.5273h7.165c1.2383,0,2.5078-.1016,3.8057-.3086,1.2979-.2051,2.4756-.5723,3.5381-1.0996,1.0625-.5293,1.9316-1.291,2.6094-2.2891.6787-.998,1.0186-2.2891,1.0186-3.875Z" style="fill:#304148; stroke-width:0px;"/><path d="M242.5609,281.8824v-62.332h41.9072v12.6777h-27.3809v11.7969h25.8838v12.0625h-25.8838v12.9414h28.9658v12.8535h-43.4922Z" style="fill:#304148; stroke-width:0px;"/><path d="M328.928,235.7496c-1.291-1.6426-2.9785-2.9492-5.0625-3.918-2.084-.9688-4.0937-1.4531-6.0303-1.4531-.999,0-2.0107.0879-3.0371.2637-1.0283.1758-1.9521.5156-2.7734,1.0137-.8232.498-1.5117,1.1445-2.0693,1.9355-.5586.793-.8359,1.8047-.8359,3.0391,0,1.0547.2197,1.9355.6602,2.6406.4404.7031,1.0859,1.3203,1.9375,1.8477.8496.5293,1.8613,1.0137,3.0371,1.4531,1.1738.4414,2.4941.8965,3.9609,1.3652,2.1133.7051,4.3145,1.4824,6.6035,2.332,2.2891.8516,4.3721,1.9824,6.252,3.3906,1.877,1.4082,3.4336,3.1562,4.666,5.2383,1.2324,2.084,1.8477,4.6816,1.8477,7.791,0,3.582-.6602,6.6777-1.9805,9.2891-1.3203,2.6133-3.0957,4.7695-5.3262,6.4707-2.2314,1.7031-4.7852,2.9648-7.6602,3.7871-2.876.8203-5.8408,1.2324-8.8916,1.2324-4.4619,0-8.7754-.7793-12.9424-2.334-4.168-1.5547-7.6309-3.7695-10.3887-6.6465l9.8604-10.0371c1.5264,1.8789,3.5361,3.4492,6.0303,4.7109,2.4941,1.2617,4.9746,1.8926,7.4404,1.8926,1.1143,0,2.2002-.1172,3.2568-.3535,1.0566-.2324,1.9814-.6152,2.7734-1.1445.793-.5273,1.4229-1.2324,1.8926-2.1113.4697-.8809.7051-1.9375.7051-3.1699,0-1.1738-.2949-2.1719-.8809-2.9941-.5869-.8203-1.4238-1.5684-2.5088-2.2441-1.0869-.6738-2.4365-1.291-4.0498-1.8496-1.6152-.5566-3.4492-1.1582-5.5029-1.8047-1.9961-.6445-3.9482-1.4082-5.8545-2.2891-1.9082-.8809-3.6094-2.0098-5.1064-3.3906-1.4971-1.377-2.7002-3.0508-3.6104-5.0176-.9102-1.9648-1.3643-4.3574-1.3643-7.1758,0-3.4629.7041-6.4258,2.1133-8.8926,1.4092-2.4648,3.2568-4.4883,5.5459-6.0742,2.2891-1.584,4.8721-2.7422,7.748-3.4766,2.875-.7344,5.7812-1.1016,8.7168-1.1016,3.5215,0,7.1152.6465,10.7852,1.9375,3.667,1.291,6.8809,3.1992,9.6406,5.7227l-9.5977,10.125Z" style="fill:#304148; stroke-width:0px;"/><path d="M392.6693,280.7828c-4.0498,1.8477-8.7158,2.7734-13.999,2.7734-4.8125,0-9.2588-.793-13.3379-2.377-4.0801-1.5859-7.6152-3.8301-10.6094-6.7363-2.9922-2.9043-5.3418-6.3828-7.043-10.4316-1.7031-4.0508-2.5527-8.5098-2.5527-13.3828,0-4.9883.8652-9.5098,2.5967-13.5586,1.7314-4.0508,4.123-7.498,7.1758-10.3457,3.0518-2.8457,6.6318-5.0313,10.7412-6.5586,4.1074-1.5254,8.5391-2.2891,13.2939-2.2891,4.4023,0,8.7295.7793,12.9863,2.334,4.2549,1.5547,7.7041,3.8281,10.3447,6.8223l-10.2129,10.2129c-1.4082-1.9375-3.2578-3.375-5.5469-4.3145-2.2891-.9375-4.6367-1.4082-7.043-1.4082-2.6406,0-5.0625.4844-7.2637,1.4531-2.2012.9688-4.0938,2.3047-5.6777,4.0059-1.5859,1.7031-2.8184,3.7129-3.6982,6.0313-.8809,2.3184-1.3213,4.8574-1.3213,7.6152,0,2.8164.4404,5.4004,1.3213,7.748.8799,2.3477,2.0977,4.3574,3.6533,6.0293,1.5547,1.6738,3.418,2.9805,5.5908,3.918,2.1709.9395,4.5479,1.4102,7.1318,1.4102,2.9932,0,5.6035-.5859,7.8359-1.7617,2.2285-1.1738,4.0195-2.6992,5.3691-4.5781l10.4775,9.8613c-2.7588,3.168-6.1631,5.6777-10.2129,7.5273Z" style="fill:#304148; stroke-width:0px;"/><path d="M473.2288,250.4528c0,4.9297-.8516,9.4355-2.5537,13.5137-1.7031,4.0801-4.0654,7.5723-7.0869,10.4766-3.0244,2.9063-6.6191,5.1504-10.7852,6.7363-4.168,1.584-8.6875,2.377-13.5586,2.377s-9.377-.793-13.5146-2.377c-4.1377-1.5859-7.7187-3.8301-10.7412-6.7363-3.0234-2.9043-5.3857-6.3965-7.0879-10.4766-1.7031-4.0781-2.5527-8.584-2.5527-13.5137,0-4.9883.8496-9.4941,2.5527-13.5156,1.7021-4.0195,4.0645-7.4395,7.0879-10.2559,3.0225-2.8184,6.6035-4.9883,10.7412-6.5156,4.1377-1.5254,8.6416-2.2891,13.5146-2.2891s9.3906.7637,13.5586,2.2891c4.166,1.5273,7.7607,3.6973,10.7852,6.5156,3.0215,2.8164,5.3838,6.2363,7.0869,10.2559,1.7021,4.0215,2.5537,8.5273,2.5537,13.5156ZM457.1165,250.4528c0-2.6992-.4404-5.2246-1.3203-7.5723-.8809-2.3477-2.0996-4.3574-3.6533-6.0312-1.5566-1.6719-3.4336-2.9922-5.6348-3.9609-2.2012-.9687-4.623-1.4531-7.2637-1.4531s-5.0488.4844-7.2197,1.4531c-2.1719.9688-4.0498,2.2891-5.6348,3.9609-1.585,1.6738-2.8037,3.6836-3.6533,6.0312-.8516,2.3477-1.2773,4.873-1.2773,7.5723,0,2.8164.4414,5.4141,1.3213,7.791.8799,2.377,2.0977,4.418,3.6533,6.1191,1.5547,1.7031,3.4189,3.0371,5.5908,4.0059,2.1709.9688,4.5781,1.4531,7.2197,1.4531s5.0469-.4844,7.2187-1.4531c2.1719-.9688,4.0508-2.3027,5.6348-4.0059,1.585-1.7012,2.8174-3.7422,3.6982-6.1191.8799-2.377,1.3203-4.9746,1.3203-7.791Z" style="fill:#304148; stroke-width:0px;"/><path d="M516.5443,281.8824l-13.5342-24.7383h-5.1309v24.7383h-14.7031v-62.332h23.7715c2.9932,0,5.9121.3066,8.7598.9238,2.8467.6152,5.3994,1.6582,7.6602,3.125,2.2588,1.4687,4.0635,3.4043,5.4141,5.8105,1.3496,2.4082,2.0254,5.4004,2.0254,8.9805,0,4.2266-1.1445,7.7773-3.4336,10.6523-2.2891,2.877-5.459,4.9316-9.5088,6.1641l16.2881,26.6758h-17.6084ZM515.928,238.6539c0-1.4668-.3115-2.6543-.9297-3.5645-.6191-.9102-1.416-1.6152-2.3887-2.1133-.9736-.498-2.0645-.8359-3.2744-1.0137-1.209-.1758-2.374-.2637-3.4941-.2637h-8.0498v14.5273h7.166c1.2373,0,2.5059-.1016,3.8047-.3086,1.2969-.2051,2.4766-.5723,3.5381-1.0996,1.0625-.5293,1.9316-1.291,2.6094-2.2891.6787-.998,1.0186-2.2891,1.0186-3.875Z" style="fill:#304148; stroke-width:0px;"/><path d="M333.0596,467.8609c0,4.9297-.8516,9.4355-2.5537,13.5137-1.7031,4.0801-4.0654,7.5723-7.0869,10.4766-3.0244,2.9062-6.6191,5.1504-10.7852,6.7363-4.168,1.584-8.6875,2.377-13.5586,2.377s-9.377-.793-13.5146-2.377c-4.1377-1.5859-7.7188-3.8301-10.7412-6.7363-3.0234-2.9043-5.3857-6.3965-7.0879-10.4766-1.7031-4.0781-2.5527-8.584-2.5527-13.5137,0-4.9883.8496-9.4941,2.5527-13.5156,1.7021-4.0195,4.0645-7.4395,7.0879-10.2559,3.0225-2.8184,6.6035-4.9883,10.7412-6.5156,4.1377-1.5254,8.6416-2.2891,13.5146-2.2891s9.3906.7637,13.5586,2.2891c4.166,1.5273,7.7607,3.6973,10.7852,6.5156,3.0215,2.8164,5.3838,6.2363,7.0869,10.2559,1.7021,4.0215,2.5537,8.5273,2.5537,13.5156ZM316.9473,467.8609c0-2.6992-.4404-5.2246-1.3203-7.5723-.8809-2.3477-2.0996-4.3574-3.6533-6.0312-1.5566-1.6719-3.4336-2.9922-5.6348-3.9609-2.2012-.9688-4.623-1.4531-7.2637-1.4531s-5.0488.4844-7.2197,1.4531c-2.1719.9688-4.0498,2.2891-5.6348,3.9609-1.585,1.6738-2.8037,3.6836-3.6533,6.0312-.8516,2.3477-1.2773,4.873-1.2773,7.5723,0,2.8164.4414,5.4141,1.3213,7.791s2.0977,4.418,3.6533,6.1191c1.5547,1.7031,3.4189,3.0371,5.5908,4.0059,2.1709.9688,4.5781,1.4531,7.2197,1.4531s5.0469-.4844,7.2188-1.4531c2.1719-.9688,4.0508-2.3027,5.6348-4.0059,1.585-1.7012,2.8174-3.7422,3.6982-6.1191.8799-2.377,1.3203-4.9746,1.3203-7.791Z" style="fill:none; stroke-width:0px;"/><path d="M598.7045,239.9656c0,4.9297-.8516,9.4355-2.5537,13.5137-1.7031,4.0801-4.0654,7.5723-7.0869,10.4766-3.0244,2.9062-6.6191,5.1504-10.7852,6.7363-4.168,1.584-8.6875,2.377-13.5586,2.377s-9.377-.793-13.5146-2.377c-4.1377-1.5859-7.7187-3.8301-10.7412-6.7363-3.0234-2.9043-5.3857-6.3965-7.0879-10.4766-1.7031-4.0781-2.5527-8.584-2.5527-13.5137,0-4.9883.8496-9.4941,2.5527-13.5156,1.7021-4.0195,4.0645-7.4395,7.0879-10.2559,3.0225-2.8184,6.6035-4.9883,10.7412-6.5156,4.1377-1.5254,8.6416-2.2891,13.5146-2.2891s9.3906.7637,13.5586,2.2891c4.166,1.5273,7.7607,3.6973,10.7852,6.5156,3.0215,2.8164,5.3838,6.2363,7.0869,10.2559,1.7021,4.0215,2.5537,8.5273,2.5537,13.5156ZM582.5922,239.9656c0-2.6992-.4404-5.2246-1.3203-7.5723-.8809-2.3477-2.0996-4.3574-3.6533-6.0312-1.5566-1.6719-3.4336-2.9922-5.6348-3.9609-2.2012-.9688-4.623-1.4531-7.2637-1.4531s-5.0488.4844-7.2197,1.4531c-2.1719.9687-4.0498,2.2891-5.6348,3.9609-1.585,1.6738-2.8037,3.6836-3.6533,6.0312-.8516,2.3477-1.2773,4.873-1.2773,7.5723,0,2.8164.4414,5.4141,1.3213,7.791.8799,2.377,2.0977,4.418,3.6533,6.1191,1.5547,1.7031,3.4189,3.0371,5.5908,4.0059,2.1709.9688,4.5781,1.4531,7.2197,1.4531s5.0469-.4844,7.2187-1.4531,4.0508-2.3027,5.6348-4.0059c1.585-1.7012,2.8174-3.7422,3.6982-6.1191.8799-2.377,1.3203-4.9746,1.3203-7.791Z" style="fill:none; stroke-width:0px;"/><path d="M67.8809,239.9656c0,4.9297-.8516,9.4355-2.5537,13.5137-1.7031,4.0801-4.0654,7.5723-7.0869,10.4766-3.0244,2.9062-6.6191,5.1504-10.7852,6.7363-4.168,1.584-8.6875,2.377-13.5586,2.377s-9.377-.793-13.5146-2.377c-4.1377-1.5859-7.7188-3.8301-10.7412-6.7363-3.0234-2.9043-5.3857-6.3965-7.0879-10.4766-1.7031-4.0781-2.5527-8.584-2.5527-13.5137,0-4.9883.8496-9.4941,2.5527-13.5156,1.7021-4.0195,4.0645-7.4395,7.0879-10.2559,3.0225-2.8184,6.6035-4.9883,10.7412-6.5156,4.1377-1.5254,8.6416-2.2891,13.5146-2.2891s9.3906.7637,13.5586,2.2891c4.166,1.5273,7.7607,3.6973,10.7852,6.5156,3.0215,2.8164,5.3838,6.2363,7.0869,10.2559,1.7021,4.0215,2.5537,8.5273,2.5537,13.5156ZM51.7686,239.9656c0-2.6992-.4404-5.2246-1.3203-7.5723-.8809-2.3477-2.0996-4.3574-3.6533-6.0312-1.5566-1.6719-3.4336-2.9922-5.6348-3.9609-2.2012-.9688-4.623-1.4531-7.2637-1.4531s-5.0488.4844-7.2197,1.4531c-2.1719.9687-4.0498,2.2891-5.6348,3.9609-1.585,1.6738-2.8037,3.6836-3.6533,6.0312-.8516,2.3477-1.2773,4.873-1.2773,7.5723,0,2.8164.4414,5.4141,1.3213,7.791.8799,2.377,2.0977,4.418,3.6533,6.1191,1.5547,1.7031,3.4189,3.0371,5.5908,4.0059,2.1709.9688,4.5781,1.4531,7.2197,1.4531s5.0469-.4844,7.2188-1.4531c2.1719-.9688,4.0508-2.3027,5.6348-4.0059,1.585-1.7012,2.8174-3.7422,3.6982-6.1191.8799-2.377,1.3203-4.9746,1.3203-7.791Z" style="fill:none; stroke-width:0px;"/><path d="M337.254,32.5762c0,4.9297-.8516,9.4355-2.5537,13.5137-1.7031,4.0801-4.0654,7.5723-7.0869,10.4766-3.0244,2.9062-6.6191,5.1504-10.7852,6.7363-4.168,1.584-8.6875,2.377-13.5586,2.377s-9.377-.793-13.5146-2.377c-4.1377-1.5859-7.7187-3.8301-10.7412-6.7363-3.0234-2.9043-5.3857-6.3965-7.0879-10.4766-1.7031-4.0781-2.5527-8.584-2.5527-13.5137,0-4.9883.8496-9.4941,2.5527-13.5156,1.7021-4.0195,4.0645-7.4395,7.0879-10.2559,3.0225-2.8184,6.6035-4.9883,10.7412-6.5156,4.1377-1.5254,8.6416-2.2891,13.5146-2.2891s9.3906.7637,13.5586,2.2891c4.166,1.5273,7.7607,3.6973,10.7852,6.5156,3.0215,2.8164,5.3838,6.2363,7.0869,10.2559,1.7021,4.0215,2.5537,8.5273,2.5537,13.5156ZM321.1417,32.5762c0-2.6992-.4404-5.2246-1.3203-7.5723-.8809-2.3477-2.0996-4.3574-3.6533-6.0312-1.5566-1.6719-3.4336-2.9922-5.6348-3.9609-2.2012-.9688-4.623-1.4531-7.2637-1.4531s-5.0488.4844-7.2197,1.4531c-2.1719.9688-4.0498,2.2891-5.6348,3.9609-1.585,1.6738-2.8037,3.6836-3.6533,6.0312-.8516,2.3477-1.2773,4.873-1.2773,7.5723,0,2.8164.4414,5.4141,1.3213,7.791.8799,2.377,2.0977,4.418,3.6533,6.1191,1.5547,1.7031,3.4189,3.0371,5.5908,4.0059,2.1709.9688,4.5781,1.4531,7.2197,1.4531s5.0469-.4844,7.2188-1.4531c2.1719-.9688,4.0508-2.3027,5.6348-4.0059,1.585-1.7012,2.8174-3.7422,3.6982-6.1191.8799-2.377,1.3203-4.9746,1.3203-7.791Z" style="fill:none; stroke-width:0px;"/></g></g></svg>